<?xml version="1.0" encoding="UTF-8"?>
<svg id="Layer_2" data-name="Layer 2" xmlns="http://www.w3.org/2000/svg" viewBox="0 0 527.3 715.33">
  <defs>
    <style>
      .cls-1 {
        fill: #4f8ac9;
        stroke-width: 0px;
      }
    </style>
  </defs>
  <g id="Layer_4" data-name="Layer 4">
    <path class="cls-1" d="M250.72,136.3c-18.83,0-34.28,4.64-46.43,13.82V3.26c16.64-2.16,34.09-3.26,52.4-3.26,76.93,0,138.94,18.41,186.05,55.22,47.09,36.81,72.29,88.05,75.62,153.71h-184.06c-1.34-22.54-9.63-40.29-24.87-53.23-15.27-12.93-34.82-19.4-58.7-19.4ZM496.45,397.96c-20.57-26.52-44.94-46.76-73.12-60.69-28.2-13.93-64.84-28.51-109.94-43.78-45.11-14.58-78.27-28.18-99.49-40.79-3.5-2.08-6.69-4.31-9.62-6.66v167.84c4.13,1.32,8.32,2.64,12.6,3.97,31.17,9.3,55.22,17.58,72.13,24.87,16.91,7.31,31.17,16.59,42.78,27.86,11.59,11.29,17.41,25.54,17.41,42.78,0,20.57-7.31,36.65-21.89,48.25-14.6,11.61-34.49,17.41-59.69,17.41s-44.44-6.79-59.69-20.4c-15.26-13.59-24.22-33.33-26.86-59.2V0H0v499.44c1.32,45.76,14.08,84.91,38.3,117.4,24.2,32.51,56.54,57.05,97,73.62,40.45,16.59,86.21,24.87,137.29,24.87s97.83-9.61,136.3-28.85c38.46-19.23,67.81-45.1,88.05-77.6,20.23-32.49,30.34-68.65,30.34-108.44,0-41.78-10.29-75.94-30.84-102.47Z"/>
  </g>
</svg>